<!--?xml version="1.0" standalone="no"?-->              <svg id="sw-js-blob-svg" viewBox="0 0 100 100" xmlns="http://www.w3.org/2000/svg" version="1.1">                    <defs>                         <linearGradient id="sw-gradient" x1="0" x2="1" y1="1" y2="0">                            <stop id="stop1" stop-color="rgba(248, 117, 55, 1)" offset="0%"></stop>                            <stop id="stop2" stop-color="rgba(251, 168, 31, 1)" offset="100%"></stop>                        </linearGradient>                    </defs>                <path fill="url(#sw-gradient)" d="M22.5,-25.7C28.3,-22,31.5,-14,33.5,-5.5C35.6,3.1,36.4,12.3,32.3,17.9C28.2,23.5,19.1,25.5,10.9,27.4C2.7,29.3,-4.7,31.2,-10.7,29.1C-16.7,27,-21.4,21,-24.6,14.6C-27.9,8.2,-29.8,1.3,-30.1,-6.8C-30.5,-14.9,-29.3,-24.2,-24,-27.9C-18.7,-31.7,-9.4,-30,-0.5,-29.4C8.4,-28.8,16.7,-29.4,22.5,-25.7Z" width="100%" height="100%" transform="translate(50 50)" stroke-width="0" style="transition: all 0.3s ease 0s;"></path>              </svg>